<svg id="Capa_1" data-name="Capa 1" xmlns="http://www.w3.org/2000/svg" viewBox="0 0 500.43 500.43"><defs><style>.cls-1{fill:#21305d;}.cls-2{fill:#fff;}</style></defs><title>logoabiblue</title><rect class="cls-1" width="500.43" height="500.43"/><ellipse class="cls-2" cx="27.57" cy="196.26" rx="18.16" ry="16.55"/><rect class="cls-2" x="18.87" y="196.89" width="462.77" height="15.62" rx="7.81"/><rect class="cls-2" x="7.58" y="135.17" width="262.68" height="26.95" rx="10.85" transform="translate(-43.83 59.87) rotate(-21)"/><rect class="cls-2" x="228.68" y="135.17" width="262.68" height="26.95" rx="10.85" transform="translate(643.07 416.64) rotate(-159)"/><ellipse class="cls-2" cx="471.8" cy="196.26" rx="18.16" ry="16.55"/><rect class="cls-2" x="24.53" y="230.2" width="71.84" height="147.84" rx="5.21"/><rect class="cls-2" x="118.49" y="230.2" width="46.85" height="147.84" rx="4.24"/><rect class="cls-2" x="401.29" y="229.99" width="71.84" height="147.84" rx="5.21" transform="translate(874.63 608.03) rotate(-180)"/><rect class="cls-2" x="332.32" y="229.99" width="46.85" height="147.84" rx="4.24" transform="translate(711.71 608.03) rotate(-180)"/><rect class="cls-2" x="234.18" y="282.79" width="36.44" height="98.89" rx="6.5"/><path class="cls-2" d="M249.56,352.82,218.4,373.34a4.79,4.79,0,0,0,2.63,8.78h62.32a4.79,4.79,0,0,0,2.63-8.78l-31.16-20.52A4.79,4.79,0,0,0,249.56,352.82Z" transform="translate(0.21 0.21)"/><rect class="cls-2" x="193.04" y="223.96" width="13.53" height="157.73" rx="6.77"/><path class="cls-2" d="M196.55,362,181.4,372.35a5.33,5.33,0,0,0,3,9.73h30.29a5.33,5.33,0,0,0,3-9.73L202.55,362A5.34,5.34,0,0,0,196.55,362Z" transform="translate(0.21 0.21)"/><rect class="cls-2" x="184.12" y="203.64" width="26.96" height="34.36" rx="6.33" transform="translate(-95.91 260.19) rotate(-55.77)"/><rect class="cls-2" x="298.02" y="223.74" width="13.53" height="157.73" rx="6.77" transform="translate(609.79 605.42) rotate(180)"/><path class="cls-2" d="M307.83,362,323,372.35a5.33,5.33,0,0,1-3,9.73H289.69a5.33,5.33,0,0,1-3-9.73L301.83,362A5.34,5.34,0,0,1,307.83,362Z" transform="translate(0.21 0.21)"/><rect class="cls-2" x="293.3" y="203.64" width="26.96" height="34.36" rx="6.33" transform="translate(296.99 598.9) rotate(-124.23)"/><rect class="cls-2" x="216.64" y="256.94" width="71.52" height="10.41" rx="3.39"/><rect class="cls-2" x="196.13" y="210.56" width="110.25" height="15.1" rx="5.07"/><rect class="cls-2" x="13.79" y="391.78" width="477.23" height="16.27" rx="5.94"/><rect class="cls-1" x="342.05" y="251.63" width="26.05" height="26.05" rx="8.49"/><rect class="cls-1" x="342.05" y="282.3" width="26.05" height="26.05" rx="8.49"/><rect class="cls-1" x="342.05" y="315.39" width="26.05" height="26.05" rx="8.49"/><rect class="cls-1" x="415.82" y="252.12" width="26.05" height="26.05" rx="8.49"/><rect class="cls-1" x="415.82" y="282.79" width="26.05" height="26.05" rx="8.49"/><rect class="cls-1" x="415.82" y="315.88" width="26.05" height="26.05" rx="8.49"/><rect class="cls-1" x="129.55" y="251.42" width="26.05" height="26.05" rx="8.49" transform="translate(285.38 529.1) rotate(-180)"/><rect class="cls-1" x="129.55" y="282.09" width="26.05" height="26.05" rx="8.49" transform="translate(285.38 590.44) rotate(-180)"/><rect class="cls-1" x="129.55" y="315.18" width="26.05" height="26.05" rx="8.49" transform="translate(285.38 656.63) rotate(-180)"/><rect class="cls-1" x="55.78" y="251.9" width="26.05" height="26.05" rx="8.49" transform="translate(137.83 530.07) rotate(-180)"/><rect class="cls-1" x="55.78" y="282.58" width="26.05" height="26.05" rx="8.49" transform="translate(137.83 591.42) rotate(-180)"/><rect class="cls-1" x="55.78" y="315.67" width="26.05" height="26.05" rx="8.49" transform="translate(137.83 657.6) rotate(-180)"/></svg>