<svg id="Capa_1" data-name="Capa 1" xmlns="http://www.w3.org/2000/svg" viewBox="0 0 501.43 501.43"><defs><style>.cls-1,.cls-3{fill:#fff;}.cls-1{stroke:#1d1d1b;stroke-miterlimit:10;}.cls-2{fill:#21305d;}</style></defs><title>logoabiwhite</title><rect class="cls-1" x="0.5" y="0.5" width="500.43" height="500.43"/><ellipse class="cls-2" cx="28.07" cy="196.76" rx="18.16" ry="16.55"/><rect class="cls-2" x="19.37" y="197.39" width="462.77" height="15.62" rx="7.81"/><rect class="cls-2" x="7.58" y="135.17" width="262.68" height="26.95" rx="10.85" transform="translate(-43.33 60.37) rotate(-21)"/><rect class="cls-2" x="228.68" y="135.17" width="262.68" height="26.95" rx="10.85" transform="translate(643.57 417.14) rotate(-159)"/><ellipse class="cls-2" cx="472.3" cy="196.76" rx="18.16" ry="16.55"/><rect class="cls-2" x="25.03" y="230.7" width="71.84" height="147.84" rx="5.21"/><rect class="cls-2" x="118.99" y="230.7" width="46.85" height="147.84" rx="4.24"/><rect class="cls-2" x="401.29" y="229.99" width="71.84" height="147.84" rx="5.21" transform="translate(875.13 608.53) rotate(-180)"/><rect class="cls-2" x="332.32" y="229.99" width="46.85" height="147.84" rx="4.24" transform="translate(712.21 608.53) rotate(-180)"/><rect class="cls-2" x="234.68" y="283.29" width="36.44" height="98.89" rx="6.5"/><path class="cls-2" d="M249.56,352.82,218.4,373.34a4.79,4.79,0,0,0,2.63,8.78h62.32a4.79,4.79,0,0,0,2.63-8.78l-31.16-20.52A4.79,4.79,0,0,0,249.56,352.82Z" transform="translate(0.71 0.71)"/><rect class="cls-2" x="193.54" y="224.46" width="13.53" height="157.73" rx="6.77"/><path class="cls-2" d="M196.55,362,181.4,372.35a5.33,5.33,0,0,0,3,9.73h30.29a5.33,5.33,0,0,0,3-9.73L202.55,362A5.34,5.34,0,0,0,196.55,362Z" transform="translate(0.71 0.71)"/><rect class="cls-2" x="184.12" y="203.64" width="26.96" height="34.36" rx="6.33" transform="translate(-95.41 260.69) rotate(-55.77)"/><rect class="cls-2" x="298.02" y="223.74" width="13.53" height="157.73" rx="6.77" transform="translate(610.29 605.92) rotate(180)"/><path class="cls-2" d="M307.83,362,323,372.35a5.33,5.33,0,0,1-3,9.73H289.69a5.33,5.33,0,0,1-3-9.73L301.83,362A5.34,5.34,0,0,1,307.83,362Z" transform="translate(0.71 0.71)"/><rect class="cls-2" x="293.3" y="203.64" width="26.96" height="34.36" rx="6.33" transform="translate(297.49 599.4) rotate(-124.23)"/><rect class="cls-2" x="217.14" y="257.44" width="71.52" height="10.41" rx="3.39"/><rect class="cls-2" x="196.63" y="211.06" width="110.25" height="15.1" rx="5.07"/><rect class="cls-2" x="14.29" y="392.28" width="477.23" height="16.27" rx="5.94"/><rect class="cls-3" x="342.55" y="252.13" width="26.05" height="26.05" rx="8.49"/><rect class="cls-3" x="342.55" y="282.8" width="26.05" height="26.05" rx="8.49"/><rect class="cls-3" x="342.55" y="315.89" width="26.05" height="26.05" rx="8.49"/><rect class="cls-3" x="416.32" y="252.62" width="26.05" height="26.05" rx="8.49"/><rect class="cls-3" x="416.32" y="283.29" width="26.05" height="26.05" rx="8.49"/><rect class="cls-3" x="416.32" y="316.38" width="26.05" height="26.05" rx="8.49"/><rect class="cls-3" x="129.55" y="251.42" width="26.05" height="26.05" rx="8.49" transform="translate(285.88 529.6) rotate(-180)"/><rect class="cls-3" x="129.55" y="282.09" width="26.05" height="26.05" rx="8.49" transform="translate(285.88 590.94) rotate(-180)"/><rect class="cls-3" x="129.55" y="315.18" width="26.05" height="26.05" rx="8.49" transform="translate(285.88 657.13) rotate(-180)"/><rect class="cls-3" x="55.78" y="251.9" width="26.05" height="26.05" rx="8.49" transform="translate(138.33 530.57) rotate(-180)"/><rect class="cls-3" x="55.78" y="282.58" width="26.05" height="26.05" rx="8.49" transform="translate(138.33 591.92) rotate(-180)"/><rect class="cls-3" x="55.78" y="315.67" width="26.05" height="26.05" rx="8.49" transform="translate(138.33 658.1) rotate(-180)"/></svg>